ffmpeg version n4.3.1-30-g666d2fc6e2 Copyright (c) 2000-2021 the FFmpeg developers
  built with gcc 9.3-win32 (GCC) 20200320
  configuration: --prefix=/ffbuild/prefix --pkg-config-flags=--static --pkg-config=pkg-config --cross-prefix=x86_64-w64-mingw32- --arch=x86_64 --target-os=mingw32 --enable-gpl --enable-version3 --disable-debug --disable-w32threads --enable-pthreads --enable-iconv --enable-zlib --enable-libxml2 --enable-libfreetype --enable-libfribidi --enable-gmp --enable-lzma --enable-fontconfig --enable-opencl --enable-libvmaf --disable-vulkan --enable-libvorbis --enable-amf --enable-libaom --enable-avisynth --enable-libdav1d --enable-libdavs2 --enable-ffnvcodec --enable-cuda-llvm --disable-libglslang --enable-libass --enable-libbluray --enable-libmp3lame --enable-libopus --enable-libtheora --enable-libvpx --enable-libwebp --enable-libmfx --enable-libopencore-amrnb --enable-libopencore-amrwb --enable-libopenjpeg --enable-librav1e --enable-librubberband --enable-schannel --enable-sdl2 --enable-libsoxr --enable-libsrt --enable-libtwolame --enable-libvidstab --enable-libx264 --enable-libx265 --enable-libxavs2 --enable-libxvid --enable-libzimg --extra-cflags=-DLIBTWOLAME_STATIC --extra-cxxflags= --extra-ldflags=-pthread --extra-libs=-lgomp
  libavutil      56. 51.100 / 56. 51.100
  libavcodec     58. 91.100 / 58. 91.100
  libavformat    58. 45.100 / 58. 45.100
  libavdevice    58. 10.100 / 58. 10.100
  libavfilter     7. 85.100 /  7. 85.100
  libswscale      5.  7.100 /  5.  7.100
  libswresample   3.  7.100 /  3.  7.100
  libpostproc    55.  7.100 / 55.  7.100
Splitting the commandline.
Reading option '-v' ... matched as option 'v' (set logging level) with argument 'debug'.
Reading option '-nostdin' ... matched as option 'stdin' (enable or disable interaction on standard input) with argument 0.
Reading option '-progress' ... matched as option 'progress' (write program-readable progress information) with argument 'C:/Users/Leon/AppData/Local/Temp/KritaFFmpegProgress.ndIulz'.
Reading option '-r' ... matched as option 'r' (set frame rate (Hz value, fraction or abbreviation)) with argument '24'.
Reading option '-start_number' ... matched as AVOption 'start_number' with argument '0'.
Reading option '-i' ... matched as input url with argument 'D:/Projects/Java/Big Data/gamejam_2021/Assets/Sprites/frame%04d.png'.
Reading option '-i' ... matched as input url with argument 'D:/Projects/Java/Big Data/gamejam_2021/Assets/Sprites/palette.png'.
Reading option '-lavfi' ... matched as option 'lavfi' (create a complex filtergraph) with argument '[0:v][1:v] paletteuse'.
Reading option '-y' ... matched as option 'y' (overwrite output files) with argument '1'.
Reading option 'D:/Projects/Java/Big Data/gamejam_2021/Assets/Sprites/alphons.gif' ... matched as output url.
Reading option '-vf' ... matched as option 'vf' (set video filters) with argument 'scale=w=4168:h=4168:force_original_aspect_ratio=decrease'.
Trailing option(s) found in the command: may be ignored.
Finished splitting the commandline.
Parsing a group of options: global .
Applying option v (set logging level) with argument debug.
Applying option nostdin (enable or disable interaction on standard input) with argument 0.
Applying option progress (write program-readable progress information) with argument C:/Users/Leon/AppData/Local/Temp/KritaFFmpegProgress.ndIulz.
[file @ 00000282fb2156c0] Setting default whitelist 'file,crypto,data'
Applying option lavfi (create a complex filtergraph) with argument [0:v][1:v] paletteuse.
Applying option y (overwrite output files) with argument 1.
Successfully parsed a group of options.
Parsing a group of options: input url D:/Projects/Java/Big Data/gamejam_2021/Assets/Sprites/frame%04d.png.
Applying option r (set frame rate (Hz value, fraction or abbreviation)) with argument 24.
Successfully parsed a group of options.
Opening an input file: D:/Projects/Java/Big Data/gamejam_2021/Assets/Sprites/frame%04d.png.
[image2 @ 00000282fb255b40] Opening 'D:/Projects/Java/Big Data/gamejam_2021/Assets/Sprites/frame0000.png' for reading
[file @ 00000282f975c1c0] Setting default whitelist 'file,crypto,data'
[AVIOContext @ 00000282fb260000] Statistics: 484498 bytes read, 0 seeks
[image2 @ 00000282fb255b40] Opening 'D:/Projects/Java/Big Data/gamejam_2021/Assets/Sprites/frame0001.png' for reading
[file @ 00000282fb2d6800] Setting default whitelist 'file,crypto,data'
[AVIOContext @ 00000282fb2d6980] Statistics: 484498 bytes read, 0 seeks
[image2 @ 00000282fb255b40] Opening 'D:/Projects/Java/Big Data/gamejam_2021/Assets/Sprites/frame0002.png' for reading
[file @ 00000282fb2d68c0] Setting default whitelist 'file,crypto,data'
[AVIOContext @ 00000282fb25f7c0] Statistics: 484498 bytes read, 0 seeks
[image2 @ 00000282fb255b40] Opening 'D:/Projects/Java/Big Data/gamejam_2021/Assets/Sprites/frame0003.png' for reading
[file @ 00000282fb2d68c0] Setting default whitelist 'file,crypto,data'
[AVIOContext @ 00000282fb25f980] Statistics: 484498 bytes read, 0 seeks
[image2 @ 00000282fb255b40] Opening 'D:/Projects/Java/Big Data/gamejam_2021/Assets/Sprites/frame0004.png' for reading
[file @ 00000282fb2d68c0] Setting default whitelist 'file,crypto,data'
[AVIOContext @ 00000282fb25fb40] Statistics: 484498 bytes read, 0 seeks
[image2 @ 00000282fb255b40] Opening 'D:/Projects/Java/Big Data/gamejam_2021/Assets/Sprites/frame0005.png' for reading
[file @ 00000282fb2d68c0] Setting default whitelist 'file,crypto,data'
[AVIOContext @ 00000282fb25fd00] Statistics: 483878 bytes read, 0 seeks
[image2 @ 00000282fb255b40] Opening 'D:/Projects/Java/Big Data/gamejam_2021/Assets/Sprites/frame0006.png' for reading
[file @ 00000282fb2d68c0] Setting default whitelist 'file,crypto,data'
[AVIOContext @ 00000282fb25fec0] Statistics: 483878 bytes read, 0 seeks
[image2 @ 00000282fb255b40] Opening 'D:/Projects/Java/Big Data/gamejam_2021/Assets/Sprites/frame0007.png' for reading
[file @ 00000282fb25fec0] Setting default whitelist 'file,crypto,data'
[AVIOContext @ 00000282fb25ffc0] Statistics: 483878 bytes read, 0 seeks
[image2 @ 00000282fb255b40] Opening 'D:/Projects/Java/Big Data/gamejam_2021/Assets/Sprites/frame0008.png' for reading
[file @ 00000282fb25fec0] Setting default whitelist 'file,crypto,data'
[AVIOContext @ 00000282fb25ffc0] Statistics: 483878 bytes read, 0 seeks
[image2 @ 00000282fb255b40] Opening 'D:/Projects/Java/Big Data/gamejam_2021/Assets/Sprites/frame0009.png' for reading
[file @ 00000282fb25ff80] Setting default whitelist 'file,crypto,data'
[AVIOContext @ 00000282f975ec80] Statistics: 483878 bytes read, 0 seeks
[image2 @ 00000282fb255b40] Opening 'D:/Projects/Java/Big Data/gamejam_2021/Assets/Sprites/frame0010.png' for reading
[file @ 00000282fb260000] Setting default whitelist 'file,crypto,data'
[AVIOContext @ 00000282f975ec80] Statistics: 483878 bytes read, 0 seeks
[image2 @ 00000282fb255b40] Probe buffer size limit of 5000000 bytes reached
Input #0, image2, from 'D:/Projects/Java/Big Data/gamejam_2021/Assets/Sprites/frame%04d.png':
  Duration: 00:00:00.44, start: 0.000000, bitrate: N/A
    Stream #0:0, 11, 1/25: Video: png, 1 reference frame, rgba(pc), 4167x4167 [SAR 11811:11811 DAR 1:1], 0/1, 25 fps, 25 tbr, 25 tbn, 25 tbc
Successfully opened the file.
Parsing a group of options: input url D:/Projects/Java/Big Data/gamejam_2021/Assets/Sprites/palette.png.
Successfully parsed a group of options.
Opening an input file: D:/Projects/Java/Big Data/gamejam_2021/Assets/Sprites/palette.png.
[NULL @ 00000282f975dc40] Opening 'D:/Projects/Java/Big Data/gamejam_2021/Assets/Sprites/palette.png' for reading
[file @ 00000282f975a8c0] Setting default whitelist 'file,crypto,data'
[png_pipe @ 00000282f975dc40] Format png_pipe probed with size=2048 and score=99
[png_pipe @ 00000282f975dc40] Before avformat_find_stream_info() pos: 0 bytes read:937 seeks:0 nb_streams:1
[png_pipe @ 00000282f975dc40] After avformat_find_stream_info() pos: 937 bytes read:937 seeks:0 frames:1
Input #1, png_pipe, from 'D:/Projects/Java/Big Data/gamejam_2021/Assets/Sprites/palette.png':
  Duration: N/A, bitrate: N/A
    Stream #1:0, 1, 1/25: Video: png, 1 reference frame, rgba(pc), 16x16 [SAR 1:1 DAR 1:1], 0/1, 25 tbr, 25 tbn, 25 tbc
Successfully opened the file.
Parsing a group of options: output url D:/Projects/Java/Big Data/gamejam_2021/Assets/Sprites/alphons.gif.
Successfully parsed a group of options.
Opening an output file: D:/Projects/Java/Big Data/gamejam_2021/Assets/Sprites/alphons.gif.
[file @ 00000282fb259680] Setting default whitelist 'file,crypto,data'
Successfully opened the file.
detected 8 logical cores
Stream mapping:
  Stream #0:0 (png) -> paletteuse:default
  Stream #1:0 (png) -> paletteuse:palette
  paletteuse -> Stream #0:0 (gif)
cur_dts is invalid st:0 (0) [init:0 i_done:0 finish:0] (this is harmless if it occurs once at the start per stream)
[image2 @ 00000282fb255b40] Thread message queue blocking; consider raising the thread_queue_size option (current value: 8)
cur_dts is invalid st:0 (0) [init:0 i_done:0 finish:0] (this is harmless if it occurs once at the start per stream)
    Last message repeated 9 times
[graph 0 input from stream 0:0 @ 00000282fb2d6700] Setting 'video_size' to value '4167x4167'
[graph 0 input from stream 0:0 @ 00000282fb2d6700] Setting 'pix_fmt' to value '26'
[graph 0 input from stream 0:0 @ 00000282fb2d6700] Setting 'time_base' to value '1/24'
[graph 0 input from stream 0:0 @ 00000282fb2d6700] Setting 'pixel_aspect' to value '11811/11811'
[graph 0 input from stream 0:0 @ 00000282fb2d6700] Setting 'frame_rate' to value '24/1'
[graph 0 input from stream 0:0 @ 00000282fb2d6700] w:4167 h:4167 pixfmt:rgba tb:1/24 fr:24/1 sar:11811/11811
[graph 0 input from stream 1:0 @ 00000282a1422ac0] Setting 'video_size' to value '16x16'
[graph 0 input from stream 1:0 @ 00000282a1422ac0] Setting 'pix_fmt' to value '26'
[graph 0 input from stream 1:0 @ 00000282a1422ac0] Setting 'time_base' to value '1/25'
[graph 0 input from stream 1:0 @ 00000282a1422ac0] Setting 'pixel_aspect' to value '1/1'
[graph 0 input from stream 1:0 @ 00000282a1422ac0] Setting 'frame_rate' to value '25/1'
[graph 0 input from stream 1:0 @ 00000282a1422ac0] w:16 h:16 pixfmt:rgba tb:1/25 fr:25/1 sar:1/1
[format @ 00000282a1422e80] Setting 'pix_fmts' to value 'rgb8|bgr8|rgb4_byte|bgr4_byte|gray|pal8'
[auto_scaler_0 @ 00000282ffa9c100] w:iw h:ih flags:'bilinear' interl:0
[Parsed_paletteuse_0 @ 00000282fb25ff40] auto-inserting filter 'auto_scaler_0' between the filter 'graph 0 input from stream 0:0' and the filter 'Parsed_paletteuse_0'
[auto_scaler_1 @ 00000282ffacc8c0] w:iw h:ih flags:'bilinear' interl:0
[Parsed_paletteuse_0 @ 00000282fb25ff40] auto-inserting filter 'auto_scaler_1' between the filter 'graph 0 input from stream 1:0' and the filter 'Parsed_paletteuse_0'
[AVFilterGraph @ 00000282ff74a6c0] query_formats: 5 queried, 2 merged, 2 already done, 0 delayed
[swscaler @ 00000282ffb27440] Forcing full internal H chroma due to odd output size
[swscaler @ 00000282ffb27440] Forcing full internal H chroma due to input having non subsampled chroma
[auto_scaler_0 @ 00000282ffa9c100] w:4167 h:4167 fmt:rgba sar:11811/11811 -> w:4167 h:4167 fmt:bgra sar:1/1 flags:0x2
[swscaler @ 00000282a1433580] Forcing full internal H chroma due to input having non subsampled chroma
[auto_scaler_1 @ 00000282ffacc8c0] w:16 h:16 fmt:rgba sar:1/1 -> w:16 h:16 fmt:bgra sar:1/1 flags:0x2
[Parsed_paletteuse_0 @ 00000282fb25ff40] [framesync @ 00000282a13a00c8] Selected 1/600 time base
[Parsed_paletteuse_0 @ 00000282fb25ff40] [framesync @ 00000282a13a00c8] Sync level 2
Output #0, gif, to 'D:/Projects/Java/Big Data/gamejam_2021/Assets/Sprites/alphons.gif':
  Metadata:
    encoder         : Lavf58.45.100
    Stream #0:0, 0, 1/100: Video: gif, 1 reference frame, pal8, 4167x4167 [SAR 1:1 DAR 1:1], 0/1, q=2-31, 200 kb/s, 24 fps, 100 tbn, 24 tbc (default)
    Metadata:
      encoder         : Lavc58.91.100 gif
Clipping frame in rate conversion by 0.000008
frame=    1 fps=0.7 q=-0.0 size=       0kB time=00:00:00.01 bitrate=   0.0kbits/s speed=0.00748x    [gif @ 00000282fb258a40] 4100x4097 image at pos (43;51) [area:4167x4167]
frame=    2 fps=1.0 q=-0.0 size=     188kB time=00:00:00.05 bitrate=30727.4kbits/s speed=0.0246x    [gif @ 00000282fb258a40] 4100x4097 image at pos (43;51) [area:4167x4167]
    Last message repeated 1 times
frame=    4 fps=1.3 q=-0.0 size=     512kB time=00:00:00.14 bitrate=29959.3kbits/s speed=0.0459x    [gif @ 00000282fb258a40] 4100x4097 image at pos (43;51) [area:4167x4167]
frame=    5 fps=1.3 q=-0.0 size=     512kB time=00:00:00.18 bitrate=23301.7kbits/s speed=0.0469x    [gif @ 00000282fb258a40] 4100x4078 image at pos (43;51) [area:4167x4167]
frame=    6 fps=1.3 q=-0.0 size=     768kB time=00:00:00.22 bitrate=28597.5kbits/s speed=0.0474x    [gif @ 00000282fb258a40] 4100x4078 image at pos (43;51) [area:4167x4167]
frame=    7 fps=1.3 q=-0.0 size=    1024kB time=00:00:00.26 bitrate=32263.9kbits/s speed=0.0476x    [gif @ 00000282fb258a40] 4100x4078 image at pos (43;51) [area:4167x4167]
frame=    8 fps=1.3 q=-0.0 size=    1280kB time=00:00:00.30 bitrate=34952.5kbits/s speed=0.0482x    [gif @ 00000282fb258a40] 4100x4078 image at pos (43;51) [area:4167x4167]
frame=    9 fps=1.3 q=-0.0 size=    1280kB time=00:00:00.34 bitrate=30840.5kbits/s speed=0.0486x    [gif @ 00000282fb258a40] 4100x4078 image at pos (43;51) [area:4167x4167]
frame=   10 fps=1.3 q=-0.0 size=    1536kB time=00:00:00.39 bitrate=32263.9kbits/s speed=0.0496x    [gif @ 00000282fb258a40] 4100x4078 image at pos (43;51) [area:4167x4167]
frame=   11 fps=1.3 q=-0.0 size=    1792kB time=00:00:00.43 bitrate=34139.7kbits/s speed=0.0497x    [Parsed_paletteuse_0 @ 00000282fb25ff40] [framesync @ 00000282a13a00c8] Sync level 0
frame=   11 fps=1.2 q=-0.0 size=    1792kB time=00:00:00.43 bitrate=34139.7kbits/s speed=0.0451x    [out_0_0 @ 00000282a1422d80] EOF on sink link out_0_0:default.
No more output streams to write to, finishing.
frame=   11 fps=1.2 q=-0.0 Lsize=    2034kB time=00:00:00.43 bitrate=38748.1kbits/s speed=0.0451x    
[AVIOContext @ 00000282fb255880] Statistics: 0 seeks, 12 writeouts
video:2034kB audio:0kB subtitle:0kB other streams:0kB global headers:0kB muxing overhead: 0.000960%
Input file #0 (D:/Projects/Java/Big Data/gamejam_2021/Assets/Sprites/frame%04d.png):
  Input stream #0:0 (video): 11 packets read (5325758 bytes); 11 frames decoded; 
  Total: 11 packets (5325758 bytes) demuxed
Input file #1 (D:/Projects/Java/Big Data/gamejam_2021/Assets/Sprites/palette.png):
  Input stream #1:0 (video): 1 packets read (937 bytes); 1 frames decoded; 
  Total: 1 packets (937 bytes) demuxed
Output file #0 (D:/Projects/Java/Big Data/gamejam_2021/Assets/Sprites/alphons.gif):
  Output stream #0:0 (video): 11 frames encoded; 11 packets muxed (2082693 bytes); 
  Total: 11 packets (2082693 bytes) muxed
12 frames successfully decoded, 0 decoding errors
[AVIOContext @ 00000282fb259780] Statistics: 0 seeks, 8 writeouts
[AVIOContext @ 00000282f975a9c0] Statistics: 937 bytes read, 0 seeks
